HIERARCHY
ROOT hip
{
  OFFSET 0 0 0
  CHANNELS 6 Xposition Yposition Zposition Zrotation Yrotation Xrotation
  JOINT abdomen
  {
    OFFSET 0 20.6881 -0.73152
    CHANNELS 3 Zrotation Xrotation Yrotation
    JOINT chest
    {
      OFFSET 0 11.7043 -0.48768
      CHANNELS 3 Zrotation Xrotation Yrotation
      JOINT neck
      {
        OFFSET 0 22.1894 -2.19456
        CHANNELS 3 Zrotation Xrotation Yrotation
        JOINT head
        {
          OFFSET -0.24384 7.07133 1.2192
          CHANNELS 3 Zrotation Xrotation Yrotation
          JOINT leftEye
          {
            OFFSET 4.14528 8.04674 8.04672
            CHANNELS 3 Zrotation Xrotation Yrotation
            End Site
            {
              OFFSET 1 0 0
            }
          }
          JOINT rightEye
          {
            OFFSET -3.6576 8.04674 8.04672
            CHANNELS 3 Zrotation Xrotation Yrotation
            End Site
            {
              OFFSET 1 0 0
            }
          }
        }
      }
      JOINT rCollar
      {
        OFFSET -2.68224 19.2634 -4.8768
        CHANNELS 3 Zrotation Xrotation Yrotation
        JOINT rShldr
        {
          OFFSET -8.77824 -1.95073 1.46304
          CHANNELS 3 Zrotation Xrotation Yrotation
          JOINT rForeArm
          {
            OFFSET -28.1742 -1.7115 0.48768
            CHANNELS 3 Zrotation Xrotation Yrotation
            JOINT rHand
            {
              OFFSET -22.5879 0.773209 7.07136
              CHANNELS 3 Zrotation Xrotation Yrotation
              JOINT rThumb1
              {
                OFFSET -1.2192 -0.487915 3.41376
                CHANNELS 3 Zrotation Xrotation Yrotation
                JOINT rThumb2
                {
                  OFFSET -3.37035 -0.52449 3.41376
                  CHANNELS 3 Zrotation Xrotation Yrotation
                  End Site
                  {
                    OFFSET -1.78271 -1.18214 1.43049
                  }
                }
              }
              JOINT rIndex1
              {
                OFFSET -7.75947 0.938293 5.60832
                CHANNELS 3 Zrotation Xrotation Yrotation
                JOINT rIndex2
                {
                  OFFSET -2.54057 -0.884171 1.56538
                  CHANNELS 3 Zrotation Xrotation Yrotation
                  End Site
                  {
                    OFFSET -1.62519 -0.234802 1.16502
                  }
                }
              }
              JOINT rMid1
              {
                OFFSET -8.24714 1.18213 3.41376
                CHANNELS 3 Zrotation Xrotation Yrotation
                JOINT rMid2
                {
                  OFFSET -3.10165 -0.590103 1.0647
                  CHANNELS 3 Zrotation Xrotation Yrotation
                  End Site
                  {
                    OFFSET -2.48547 -0.328903 0.83742
                  }
                }
              }
              JOINT rRing1
              {
                OFFSET -8.82822 0.546677 1.51678
                CHANNELS 3 Zrotation Xrotation Yrotation
                JOINT rRing2
                {
                  OFFSET -2.60934 -0.819778 -0.0198488
                  CHANNELS 3 Zrotation Xrotation Yrotation
                  End Site
                  {
                    OFFSET -2.33842 -0.294052 0.168128
                  }
                }
              }
              JOINT rPinky1
              {
                OFFSET -8.27202 -0.0477905 -0.4584
                CHANNELS 3 Zrotation Xrotation Yrotation
                JOINT rPinky2
                {
                  OFFSET -1.82734 -0.647385 -0.700984
                  CHANNELS 3 Zrotation Xrotation Yrotation
                  End Site
                  {
                    OFFSET -1.69225 -0.51767 -0.607171
                  }
                }
              }
            }
          }
        }
      }
      JOINT lCollar
      {
        OFFSET 2.68224 19.2634 -4.8768
        CHANNELS 3 Zrotation Xrotation Yrotation
        JOINT lShldr
        {
          OFFSET 8.77824 -1.95073 1.46304
          CHANNELS 3 Zrotation Xrotation Yrotation
          JOINT lForeArm
          {
            OFFSET 28.1742 -1.7115 0.48768
            CHANNELS 3 Zrotation Xrotation Yrotation
            JOINT lHand
            {
              OFFSET 22.5879 0.773209 7.07136
              CHANNELS 3 Zrotation Xrotation Yrotation
              JOINT lThumb1
              {
                OFFSET 1.2192 -0.487915 3.41376
                CHANNELS 3 Zrotation Xrotation Yrotation
                JOINT lThumb2
                {
                  OFFSET 3.37035 -0.52449 3.41376
                  CHANNELS 3 Zrotation Xrotation Yrotation
                  End Site
                  {
                    OFFSET 1.78271 -1.18214 1.43049
                  }
                }
              }
              JOINT lIndex1
              {
                OFFSET 7.75947 0.938293 5.60832
                CHANNELS 3 Zrotation Xrotation Yrotation
                JOINT lIndex2
                {
                  OFFSET 2.54057 -0.884171 1.56538
                  CHANNELS 3 Zrotation Xrotation Yrotation
                  End Site
                  {
                    OFFSET 1.62519 -0.234802 1.16502
                  }
                }
              }
              JOINT lMid1
              {
                OFFSET 8.24714 1.18213 3.41376
                CHANNELS 3 Zrotation Xrotation Yrotation
                JOINT lMid2
                {
                  OFFSET 3.10165 -0.590103 1.0647
                  CHANNELS 3 Zrotation Xrotation Yrotation
                  End Site
                  {
                    OFFSET 2.48547 -0.328903 0.83742
                  }
                }
              }
              JOINT lRing1
              {
                OFFSET 8.82822 0.546677 1.51678
                CHANNELS 3 Zrotation Xrotation Yrotation
                JOINT lRing2
                {
                  OFFSET 2.60934 -0.819778 -0.0198488
                  CHANNELS 3 Zrotation Xrotation Yrotation
                  End Site
                  {
                    OFFSET 2.33842 -0.294052 0.168128
                  }
                }
              }
              JOINT lPinky1
              {
                OFFSET 8.27202 -0.0477905 -0.4584
                CHANNELS 3 Zrotation Xrotation Yrotation
                JOINT lPinky2
                {
                  OFFSET 1.82734 -0.647385 -0.700984
                  CHANNELS 3 Zrotation Xrotation Yrotation
                  End Site
                  {
                    OFFSET 1.69225 -0.51767 -0.607171
                  }
                }
              }
            }
          }
        }
      }
    }
  }
  JOINT rButtock
  {
    OFFSET -8.77824 4.35084 1.2192
    CHANNELS 3 Zrotation Xrotation Yrotation
    JOINT rThigh
    {
      OFFSET 0 -1.70687 -2.19456
      CHANNELS 3 Zrotation Xrotation Yrotation
      JOINT rShin
      {
        OFFSET 0 -36.8199 0.73152
        CHANNELS 3 Zrotation Xrotation Yrotation
        JOINT rFoot
        {
          OFFSET 0.73152 -45.1104 -5.12064
          CHANNELS 3 Zrotation Xrotation Yrotation
          End Site
          {
            OFFSET -1.1221 -3.69964 12.103
          }
        }
      }
    }
  }
  JOINT lButtock
  {
    OFFSET 8.77824 4.35084 1.2192
    CHANNELS 3 Zrotation Xrotation Yrotation
    JOINT lThigh
    {
      OFFSET 0 -1.70687 -2.19456
      CHANNELS 3 Zrotation Xrotation Yrotation
      JOINT lShin
      {
        OFFSET 0 -36.8199 0.73152
        CHANNELS 3 Zrotation Xrotation Yrotation
        JOINT lFoot
        {
          OFFSET -0.73152 -45.1104 -5.12064
          CHANNELS 3 Zrotation Xrotation Yrotation
          End Site
          {
            OFFSET 1.1221 -3.69964 12.103
          }
        }
      }
    }
  }
}
MOTION
Frames:	4
Frame Time:	0.00833333
2.25558 60.3648 53.8418 0.0 0.0 0.0 3.32098 0.00284074 0.0895568 0.915393 0.0205977 0.158332 -9.05727e-14 1.59028e-15 -2.98177e-16 -2.72678e-13 1.59028e-14 -6.52262e-16 -0.0 0.0 0.0 -0.0 0.0 0.0 -4.56716e-14 3.44379e-16 4.96962e-17 -9.56194e-13 7.16246e-15 -5.36719e-15 -1.64896e-11 5.17158e-12 9.54166e-14 -1.8853e-10 -3.62069e-12 -9.89153e-13 -4.44744e-10 3.36238e-12 -1.88289e-12 -7.68059e-10 5.80451e-12 -3.23065e-12 -4.44738e-10 3.36185e-12 -1.88925e-12 7.73091 5.47488 0.417314 -4.44745e-10 3.36195e-12 -1.87971e-12 2.90554 0.965183 0.102902 -4.44739e-10 3.36234e-12 -1.88368e-12 10.2786 0.731801 0.0259123 -4.44752e-10 3.36622e-12 -1.87335e-12 2.22167 -0.733487 -0.20892 -4.58717e-14 3.38167e-16 -2.48481e-16 -9.57475e-13 7.48549e-15 -6.95746e-15 -1.64626e-11 -4.69032e-12 7.95139e-14 -1.88566e-10 6.25565e-12 -9.57347e-13 -4.44752e-10 3.38896e-12 -1.87335e-12 -7.68053e-10 5.84904e-12 -3.21554e-12 -4.44756e-10 3.38689e-12 -1.87335e-12 -7.73091 5.47488 -0.417314 -4.44752e-10 3.38888e-12 -1.87335e-12 -2.90554 0.965183 -0.102902 -4.44756e-10 3.38918e-12 -1.87176e-12 -10.2786 0.731801 -0.0259123 -4.44745e-10 3.39206e-12 -1.88289e-12 -2.22167 -0.733487 0.20892 -2.03217e-16 0.0 -3.88251e-19 2.98185 -9.63212 -0.345883 0.00978108 11.8587 0.257002 -0.534895 -2.24122 0.0139384 2.03217e-16 0.0 3.88251e-19 2.0651 -1.93654 -0.0170147 0.00844217 -2.07867 0.0692442 0.456687 4.00041 -0.132172
3.65882 72.6589 27.8625 -2.4182 -7.7941 105.655 3.25186 -6.03462 5.7427 -4.2182 -0.0363486 1.67801 -0.322393 -0.267733 -1.96309 1.82403 8.14055 -3.70504 -0.0 0.0 0.0 -0.0 0.0 0.0 -6.93436e-15 2.67555e-15 -3.07588e-14 -14.4765 -12.9103 7.72707 -7.00732 -4.04227 9.85293 0.268932 -11.553 -1.5072 -3.33793e-10 -5.76918e-10 1.41065e-10 -5.80481e-10 -1.0045e-09 2.43426e-10 -3.33789e-10 -5.76925e-10 1.4106e-10 7.73091 5.47488 0.417314 -3.33795e-10 -5.76917e-10 1.41067e-10 2.90554 0.965183 0.102902 -3.33787e-10 -5.76917e-10 1.41065e-10 10.2786 0.731801 0.0259123 -3.33801e-10 -5.76914e-10 1.41075e-10 2.22167 -0.733487 -0.20892 -7.12152e-15 2.66531e-15 -3.10127e-14 23.9387 -24.5097 -8.85493 4.4921 -2.09826 -6.95313 -0.232612 -10.7341 1.41474 -1.19698e-10 -8.10681e-10 -1.08901e-10 -2.02557e-10 -1.38874e-09 -1.83029e-10 -1.19703e-10 -8.10668e-10 -1.0889e-10 -7.73091 5.47488 -0.417314 -1.19698e-10 -8.10673e-10 -1.08898e-10 -2.90554 0.965183 -0.102902 -1.197e-10 -8.10683e-10 -1.08898e-10 -10.2786 0.731801 -0.0259123 -1.19691e-10 -8.1068e-10 -1.08908e-10 -2.22167 -0.733487 0.20892 -2.03217e-16 0.0 -3.88251e-19 -3.96644 -30.961 1.344 -0.00519787 23.5637 0.442212 -0.317833 1.54296 4.8075 2.03217e-16 0.0 3.88251e-19 -2.92866 -22.7834 5.85635 -0.00873444 13.7678 -0.14503 0.366054 3.29158 5.16571
3.89471 72.7558 27.7943 -2.2383 -8.0354 105.657 4.50173 -12.1995 11.9319 -9.64928 -0.0975898 3.28496 -0.671878 -0.541029 -4.03716 4.96008 16.6679 -7.88165 -0.0 0.0 0.0 -0.0 0.0 0.0 3.03929e-14 5.02659e-15 -6.48535e-14 -25.6529 -25.7387 17.2516 -12.9256 -7.9191 20.4251 -0.163743 -23.7803 -3.32466 -2.23638e-10 -1.17947e-09 2.84546e-10 -3.94276e-10 -2.05223e-09 4.90736e-10 -2.23636e-10 -1.17948e-09 2.84543e-10 7.73091 5.47488 0.417314 -2.2364e-10 -1.17946e-09 2.84546e-10 2.90554 0.965183 0.102902 -2.23631e-10 -1.17946e-09 2.84546e-10 10.2786 0.731801 0.0259123 -2.23645e-10 -1.17946e-09 2.84556e-10 2.22167 -0.733487 -0.20892 3.02199e-14 5.01157e-15 -6.50585e-14 37.4782 -48.1214 -25.3015 8.69562 -4.21645 -14.3397 0.139094 -22.0606 3.08564 1.97453e-10 -1.67478e-09 -2.42268e-10 3.50292e-10 -2.87386e-09 -4.0888e-10 1.97446e-10 -1.67475e-09 -2.42245e-10 -7.73091 5.47488 -0.417314 1.97453e-10 -1.67476e-09 -2.42262e-10 -2.90554 0.965183 -0.102902 1.97453e-10 -1.67478e-09 -2.42263e-10 -10.2786 0.731801 -0.0259123 1.97459e-10 -1.67478e-09 -2.42271e-10 -2.22167 -0.733487 0.20892 -2.03217e-16 0.0 -3.88251e-19 -9.11917 -53.4488 4.58062 -0.124662 35.9079 0.700839 -0.771254 5.45409 9.90794 2.03217e-16 0.0 3.88251e-19 -1.94661 -43.9802 15.5297 0.118511 30.4866 -0.420689 0.412127 2.52383 10.7636
4.11558 72.89 27.7118 -2.1239 -8.1767 105.845 6.77271 -17.3834 17.791 -14.4763 -0.149779 4.71737 -1.02212 -0.79943 -5.88978 8.8607 23.9936 -12.0586 -0.0 0.0 0.0 -0.0 0.0 0.0 7.05402e-14 7.33789e-15 -9.23759e-14 -31.3157 -35.5879 28.1899 -16.9971 -10.6935 30.0587 -1.34559 -34.5523 -5.38129 -1.11893e-10 -1.73748e-09 4.26961e-10 -2.05323e-10 -3.02512e-09 7.36741e-10 -1.11892e-10 -1.7375e-09 4.2696e-10 7.73091 5.47488 0.417314 -1.11895e-10 -1.73747e-09 4.26959e-10 2.90554 0.965183 0.102902 -1.11885e-10 -1.73747e-09 4.26961e-10 10.2786 0.731801 0.0259123 -1.11898e-10 -1.73747e-09 4.26971e-10 2.22167 -0.733487 -0.20892 7.03788e-14 7.31958e-15 -9.25413e-14 27.3779 -61.4557 -58.9091 11.9792 -5.92477 -20.9625 1.13453 -32.1164 4.92508 5.3041e-10 -2.43882e-09 -3.22957e-10 9.28435e-10 -4.17791e-09 -5.42655e-10 5.30402e-10 -2.43878e-09 -3.22924e-10 -7.73091 5.47488 -0.417314 5.3041e-10 -2.4388e-09 -3.22948e-10 -2.90554 0.965183 -0.102902 5.30411e-10 -2.43883e-09 -3.2295e-10 -10.2786 0.731801 -0.0259123 5.30415e-10 -2.43882e-09 -3.22958e-10 -2.22167 -0.733487 0.20892 -2.03217e-16 0.0 -3.88251e-19 -6.23931 -73.1377 14.4093 -0.374284 46.9707 1.04489 -1.77985 8.83898 14.5661 2.03217e-16 0.0 3.88251e-19 10.9629 -60.3158 34.3548 0.428447 45.4582 -0.799788 0.576187 1.84231 15.7435
